<?xml version="1.0" encoding="UTF-8"?>
<svg id="a" data-name="Capa 1" xmlns="http://www.w3.org/2000/svg" viewBox="0 0 1080 262.58">
  <defs>
    <style>
      .b {
        fill: #3360ef;
      }
    </style>
  </defs>
  <g>
    <g>
      <path class="b" d="M329.13,12.49c45.43,0,69.6,22.48,69.6,68.64v31.9c0,46.16-24.17,68.64-69.6,68.64h-58V12.49h58ZM303.03,151.69h26.58c27.31,0,37.22-13.53,37.22-37.7v-33.83c0-24.17-9.91-37.7-37.22-37.7h-26.58v109.24Z"/>
      <path class="b" d="M475.34,58.41c34.8,0,59.21,24.41,59.21,60.42v11.84h-88.69c.72,15.47,12.08,27.79,29.48,27.79s24.65-9.42,28.76-17.88l26.1,14.98c-8.22,12.57-22.23,29.48-54.38,29.48-35.77,0-61.63-27.07-61.63-64.29s25.86-62.35,61.14-62.35ZM503.13,109.4c-1.69-14.74-12.33-24.41-28.03-24.41-17.16,0-27.07,10.15-29,24.41h57.03Z"/>
      <path class="b" d="M573.22,61.79l29.48,93.29h2.9l29.48-93.29h32.87l-41.33,119.87h-44.95l-41.33-119.87h32.87Z"/>
      <path class="b" d="M715.8,12.49v139.69h78.3v29.48h-110.2V12.49h31.9Z"/>
      <path class="b" d="M866.85,58.41c32.63,0,53.89,18.61,53.89,46.64v76.61h-29.97v-14.5h-3.38c-2.9,5.32-11.84,17.88-37.7,17.88s-44.95-14.5-44.95-37.46c0-19.09,15.23-32.14,37.46-34.56l48.09-5.32v-2.9c0-11.36-8.7-20.3-25.13-20.3s-25.86,8.22-33.35,20.78l-24.65-15.95c14.26-17.88,30.45-30.93,59.69-30.93ZM857.18,159.91c21.27,0,33.11-12.57,33.11-29v-1.93l-36.73,4.35c-11.36,1.45-16.92,5.56-16.92,12.57,0,8.22,7.01,14.02,20.54,14.02Z"/>
      <path class="b" d="M978.74,12.49v66.22h2.9c6.28-10.15,16.92-20.3,38.18-20.3,29.97,0,55.1,26.58,55.1,63.32s-25.13,63.32-55.1,63.32c-21.27,0-31.9-10.15-38.18-20.3h-3.38v16.92h-29.97V12.49h30.45ZM978.74,121.73c0,22.72,14.02,36.25,32.87,36.25s32.87-13.05,32.87-36.25-14.5-36.25-32.87-36.25-32.87,13.53-32.87,36.25Z"/>
    </g>
    <g>
      <path class="b" d="M5.07,42.07v28.14h38.2C24.05,89.27,10.64,112.81,6.52,139.9c-.36,2.34-2.61,17.27.26,17.27h27.78c.06-44.82,35.08-82.93,78.97-86.96h8.35v-29.84H5.07v1.7Z"/>
      <path class="b" d="M196.37,155.47v-28.14h-38.2c19.23-19.06,32.64-42.6,36.76-69.69.36-2.34,2.61-17.27-.26-17.27h-27.78c-.06,44.82-35.08,82.93-78.97,86.96h-8.35v29.84h116.8v-1.7Z"/>
    </g>
  </g>
  <g>
    <path class="b" d="M281.18,249.47v-26.01h-10.05v-3.46h23.74v3.46h-10.05v26.01h-3.64Z"/>
    <path class="b" d="M326.8,249.47v-29.47h18.62v3.46h-14.98v9.23h12.53v3.46h-12.53v9.87h14.98v3.46h-18.62Z"/>
    <path class="b" d="M390.08,250.09c-2.93,0-5.42-.65-7.47-1.94-2.05-1.3-3.61-3.1-4.68-5.4-1.07-2.3-1.61-4.97-1.61-8s.54-5.7,1.61-8c1.07-2.31,2.63-4.11,4.68-5.4,2.05-1.3,4.54-1.94,7.47-1.94,3.41,0,6.22.87,8.42,2.6,2.2,1.73,3.72,4.07,4.55,7l-3.7.98c-.6-2.2-1.68-3.93-3.22-5.2-1.55-1.27-3.56-1.9-6.05-1.9-2.2,0-4.02.5-5.48,1.49-1.46,1-2.56,2.39-3.3,4.18-.74,1.79-1.11,3.85-1.13,6.2-.01,2.35.35,4.41,1.08,6.19.74,1.78,1.84,3.17,3.31,4.17,1.47,1,3.31,1.5,5.51,1.5,2.48,0,4.5-.64,6.05-1.91,1.55-1.28,2.62-3.01,3.22-5.19l3.7.98c-.83,2.93-2.35,5.27-4.55,7-2.2,1.73-5.01,2.6-8.42,2.6Z"/>
    <path class="b" d="M436.22,249.47v-29.47h3.64v13h15.51v-13h3.64v29.47h-3.64v-13.02h-15.51v13.02h-3.64Z"/>
    <path class="b" d="M493.4,249.47v-29.47h3.68l15.37,23.03v-23.03h3.68v29.47h-3.68l-15.37-23.05v23.05h-3.68Z"/>
    <path class="b" d="M562.64,250.09c-2.93,0-5.42-.65-7.47-1.94-2.05-1.3-3.61-3.1-4.68-5.4-1.07-2.3-1.61-4.97-1.61-8s.54-5.7,1.61-8c1.07-2.31,2.63-4.11,4.68-5.4,2.05-1.3,4.54-1.94,7.47-1.94s5.45.65,7.49,1.94c2.05,1.3,3.6,3.1,4.67,5.4,1.06,2.3,1.6,4.97,1.6,8s-.53,5.7-1.6,8c-1.06,2.31-2.62,4.11-4.67,5.4-2.05,1.3-4.54,1.94-7.49,1.94ZM562.64,246.61c2.2.01,4.02-.48,5.49-1.48,1.46-1,2.56-2.4,3.3-4.19.74-1.79,1.1-3.85,1.1-6.2s-.37-4.41-1.1-6.19c-.74-1.78-1.84-3.17-3.3-4.16-1.46-1-3.29-1.5-5.49-1.51-2.2-.01-4.02.48-5.47,1.47-1.45,1-2.55,2.39-3.29,4.19-.74,1.79-1.11,3.86-1.13,6.21-.01,2.35.35,4.41,1.08,6.18.74,1.78,1.84,3.16,3.31,4.17,1.47,1,3.3,1.51,5.49,1.52Z"/>
    <path class="b" d="M609.55,249.47v-29.47h3.64v26.01h13.67v3.46h-17.32Z"/>
    <path class="b" d="M670.3,250.09c-2.93,0-5.42-.65-7.47-1.94-2.05-1.3-3.61-3.1-4.68-5.4-1.07-2.3-1.61-4.97-1.61-8s.54-5.7,1.61-8c1.07-2.31,2.63-4.11,4.68-5.4s4.54-1.94,7.47-1.94,5.45.65,7.49,1.94c2.05,1.3,3.6,3.1,4.67,5.4,1.06,2.3,1.6,4.97,1.6,8s-.53,5.7-1.6,8c-1.06,2.31-2.62,4.11-4.67,5.4-2.05,1.3-4.54,1.94-7.49,1.94ZM670.3,246.61c2.2.01,4.02-.48,5.49-1.48,1.46-1,2.56-2.4,3.3-4.19.74-1.79,1.1-3.85,1.1-6.2s-.37-4.41-1.1-6.19c-.74-1.78-1.84-3.17-3.3-4.16-1.46-1-3.29-1.5-5.49-1.51-2.2-.01-4.02.48-5.47,1.47-1.45,1-2.55,2.39-3.29,4.19-.74,1.79-1.11,3.86-1.13,6.21-.01,2.35.35,4.41,1.08,6.18.74,1.78,1.84,3.16,3.31,4.17,1.47,1,3.3,1.51,5.49,1.52Z"/>
    <path class="b" d="M728.73,250.09c-2.02,0-3.86-.35-5.53-1.05-1.67-.7-3.1-1.72-4.3-3.05-1.2-1.33-2.12-2.94-2.77-4.84-.65-1.9-.97-4.03-.97-6.41,0-3.14.56-5.85,1.68-8.15,1.12-2.29,2.7-4.06,4.73-5.31,2.03-1.25,4.42-1.87,7.16-1.87,3.3,0,5.96.77,7.98,2.31,2.02,1.54,3.41,3.64,4.17,6.28l-3.68.76c-.63-1.77-1.64-3.19-3.04-4.26-1.4-1.06-3.15-1.6-5.25-1.62-2.2-.01-4.02.48-5.47,1.47-1.45,1-2.55,2.39-3.29,4.18-.74,1.79-1.11,3.85-1.13,6.2-.01,2.35.35,4.41,1.08,6.18.74,1.78,1.84,3.16,3.31,4.17,1.47,1,3.3,1.51,5.49,1.52,1.9.01,3.49-.35,4.78-1.08,1.29-.74,2.29-1.8,3.01-3.18.72-1.38,1.15-3.06,1.3-5.03h-6.26v-3.01h10.11c.04.27.06.6.07.97s0,.63,0,.77c0,2.69-.5,5.09-1.5,7.21-1,2.12-2.48,3.79-4.44,5-1.96,1.21-4.38,1.82-7.26,1.82Z"/>
    <path class="b" d="M780.51,249.47v-12.26l-9.93-17.21h4.24l7.53,13.04,7.51-13.04h4.24l-9.91,17.21v12.26h-3.68Z"/>
  </g>
</svg>