<?xml version="1.0" encoding="UTF-8"?>
<svg id="a" data-name="Capa 1" xmlns="http://www.w3.org/2000/svg" viewBox="0 0 1080 198.38">
  <defs>
    <style>
      .b {
        fill: #3360ef;
      }
    </style>
  </defs>
  <g>
    <path class="b" d="M329.13,12.91c45.43,0,69.6,22.48,69.6,68.64v31.9c0,46.16-24.17,68.64-69.6,68.64h-58V12.91h58ZM303.03,152.11h26.58c27.31,0,37.22-13.53,37.22-37.7v-33.83c0-24.17-9.91-37.7-37.22-37.7h-26.58v109.24Z"/>
    <path class="b" d="M475.34,58.83c34.8,0,59.21,24.41,59.21,60.42v11.84h-88.69c.72,15.47,12.08,27.79,29.48,27.79s24.65-9.42,28.76-17.88l26.1,14.98c-8.22,12.57-22.23,29.48-54.38,29.48-35.77,0-61.63-27.07-61.63-64.29s25.86-62.35,61.14-62.35ZM503.13,109.82c-1.69-14.74-12.33-24.41-28.03-24.41-17.16,0-27.07,10.15-29,24.41h57.03Z"/>
    <path class="b" d="M573.22,62.21l29.48,93.29h2.9l29.48-93.29h32.87l-41.33,119.87h-44.95l-41.33-119.87h32.87Z"/>
    <path class="b" d="M715.8,12.91v139.69h78.3v29.48h-110.2V12.91h31.9Z"/>
    <path class="b" d="M866.85,58.83c32.63,0,53.89,18.61,53.89,46.64v76.61h-29.97v-14.5h-3.38c-2.9,5.32-11.84,17.88-37.7,17.88s-44.95-14.5-44.95-37.46c0-19.09,15.23-32.14,37.46-34.56l48.09-5.32v-2.9c0-11.36-8.7-20.3-25.13-20.3s-25.86,8.22-33.35,20.78l-24.65-15.95c14.26-17.88,30.45-30.93,59.69-30.93ZM857.18,160.33c21.27,0,33.11-12.57,33.11-29v-1.93l-36.73,4.35c-11.36,1.45-16.92,5.56-16.92,12.57,0,8.22,7.01,14.02,20.54,14.02Z"/>
    <path class="b" d="M978.74,12.91v66.22h2.9c6.28-10.15,16.92-20.3,38.18-20.3,29.97,0,55.1,26.58,55.1,63.32s-25.13,63.32-55.1,63.32c-21.27,0-31.9-10.15-38.18-20.3h-3.38v16.92h-29.97V12.91h30.45ZM978.74,122.15c0,22.72,14.02,36.25,32.87,36.25s32.87-13.05,32.87-36.25-14.5-36.25-32.87-36.25-32.87,13.53-32.87,36.25Z"/>
  </g>
  <g>
    <path class="b" d="M5.07,42.49v28.14h38.2C24.05,89.69,10.64,113.23,6.52,140.32c-.36,2.34-2.61,17.27.26,17.27h27.78c.06-44.82,35.08-82.93,78.97-86.96h8.35v-29.84H5.07v1.7Z"/>
    <path class="b" d="M196.37,155.89v-28.14h-38.2c19.23-19.06,32.64-42.6,36.76-69.69.36-2.34,2.61-17.27-.26-17.27h-27.78c-.06,44.82-35.08,82.93-78.97,86.96h-8.35v29.84h116.8v-1.7Z"/>
  </g>
</svg>